<svg width="1280" height="720" viewBox="0 0 1280 720" fill="none" xmlns="http://www.w3.org/2000/svg">
<rect width="1280" height="720" fill="#DADADA"/>
<rect width="90" height="720" fill="white"/>
<rect x="124" y="71" width="270" height="150" fill="white"/>
<rect x="406" y="71" width="270" height="150" fill="white"/>
<rect x="688" y="71" width="269" height="150" fill="white"/>
<rect x="969" y="71" width="270" height="150" fill="white"/>
<rect y="71" width="118" height="72" fill="#D9D9D9"/>
<path d="M162.594 90.0732C164.166 95.8242 174.83 97.709 181.92 101.42C182.076 104.857 180.514 108.51 176.383 111.41C176.666 118.266 172.301 122.172 165.221 124.34C165.191 127.582 163.98 130.59 160.602 133.158L154.84 129.604L159.469 126.264C159.293 123.764 158.531 121.156 154.098 119.691L151.529 110.59C146.207 109.574 146.461 107.533 146.031 105.619L139.69 107.611C134.89 104.584 134.622 100.248 140.302 99.4668L140.984 92.3594L145.982 93.25L146.988 89.6162L151.832 88.8447L153.854 92.4902L162.594 90.0732Z" fill="#CCCCCC"/>
<path d="M740.119 115.506C738.246 116.644 736.094 117.243 733.902 117.236C732.066 117.222 730.25 116.846 728.559 116.131C727.255 117.971 726.557 120.172 726.562 122.428V128.187C726.563 128.402 726.519 128.614 726.434 128.81C726.35 129.007 726.225 129.184 726.069 129.331C725.913 129.477 725.728 129.59 725.526 129.662C725.325 129.734 725.11 129.764 724.896 129.75C724.495 129.715 724.121 129.529 723.851 129.231C723.58 128.932 723.433 128.542 723.438 128.139V125.709L715.895 118.166C714.773 118.584 713.587 118.803 712.391 118.812C710.743 118.817 709.126 118.366 707.719 117.51C703.463 114.924 701.172 108.973 701.615 101.584C701.638 101.202 701.799 100.841 702.07 100.57C702.341 100.299 702.702 100.138 703.084 100.115C710.473 99.6796 716.424 101.963 719.002 106.219C720.015 107.887 720.457 109.839 720.262 111.781C720.25 111.932 720.194 112.075 720.102 112.195C720.01 112.315 719.885 112.405 719.743 112.455C719.601 112.505 719.447 112.513 719.3 112.478C719.153 112.442 719.02 112.365 718.916 112.256L715.166 108.33C714.871 108.049 714.477 107.895 714.07 107.9C713.662 107.906 713.273 108.07 712.985 108.358C712.697 108.646 712.533 109.035 712.527 109.443C712.522 109.85 712.676 110.244 712.957 110.539L723.48 121.33C723.492 121.178 723.506 121.025 723.521 120.875C723.863 117.978 725.142 115.272 727.162 113.168L737.043 102.727C737.336 102.434 737.501 102.036 737.501 101.622C737.501 101.207 737.337 100.81 737.044 100.517C736.751 100.223 736.354 100.059 735.939 100.058C735.525 100.058 735.127 100.223 734.834 100.516L725.264 110.637C725.168 110.738 725.047 110.812 724.913 110.851C724.779 110.89 724.637 110.892 724.501 110.857C724.366 110.822 724.243 110.752 724.144 110.654C724.045 110.555 723.975 110.432 723.939 110.297C723.014 106.883 723.422 103.484 725.189 100.566C728.678 94.8086 736.795 91.7265 746.904 92.3203C747.287 92.3426 747.647 92.5045 747.918 92.7753C748.189 93.046 748.351 93.4068 748.373 93.789C748.959 103.9 745.877 112.018 740.119 115.506Z" fill="#43655A"/>
<g clip-path="url(#clip0_47_2)">
<path d="M60.5582 257.339C58.685 258.478 56.5336 259.077 54.3414 259.07C52.5049 259.055 50.6892 258.679 48.9977 257.964C47.694 259.805 46.9963 262.006 47.0016 264.261V270.021C47.0021 270.235 46.9585 270.447 46.8736 270.644C46.7887 270.84 46.6642 271.017 46.508 271.164C46.3517 271.31 46.167 271.423 45.9654 271.495C45.7637 271.568 45.5493 271.598 45.3356 271.583C44.934 271.548 44.5604 271.363 44.2898 271.064C44.0192 270.765 43.8716 270.375 43.8766 269.972V267.542L36.3336 259.999C35.2123 260.418 34.0265 260.636 32.8297 260.646C31.1822 260.65 29.5655 260.199 28.1578 259.343C23.902 256.757 21.611 250.806 22.0543 243.417C22.0767 243.035 22.2386 242.674 22.5093 242.404C22.7801 242.133 23.1408 241.971 23.5231 241.949C30.9118 241.513 36.8629 243.796 39.4411 248.052C40.454 249.72 40.8962 251.673 40.7008 253.615C40.6887 253.765 40.6332 253.909 40.5411 254.028C40.449 254.148 40.3243 254.238 40.1819 254.288C40.0396 254.339 39.8858 254.347 39.739 254.311C39.5923 254.276 39.459 254.199 39.3551 254.089L35.6051 250.163C35.3097 249.883 34.9163 249.729 34.5089 249.734C34.1015 249.739 33.7122 249.903 33.4241 250.191C33.1359 250.479 32.9718 250.869 32.9665 251.276C32.9613 251.684 33.1155 252.077 33.3961 252.372L43.9196 263.163C43.9313 263.011 43.945 262.859 43.9606 262.708C44.3023 259.811 45.5806 257.105 47.6012 255.001L57.4821 244.56C57.7753 244.267 57.9401 243.87 57.9403 243.455C57.9404 243.041 57.776 242.643 57.483 242.35C57.1901 242.057 56.7927 241.892 56.3783 241.892C55.9638 241.892 55.5663 242.056 55.2731 242.349L45.7028 252.47C45.607 252.572 45.4858 252.645 45.3517 252.684C45.2176 252.723 45.0757 252.725 44.9405 252.69C44.8053 252.656 44.6819 252.586 44.5831 252.487C44.4843 252.388 44.4136 252.265 44.3786 252.13C43.4528 248.716 43.861 245.318 45.6286 242.4C49.1168 236.642 57.234 233.56 67.3434 234.154C67.7256 234.176 68.0864 234.338 68.3572 234.609C68.6279 234.879 68.7898 235.24 68.8121 235.622C69.3981 245.734 66.3161 253.851 60.5582 257.339Z" fill="#43655A"/>
</g>
<path d="M453.573 128.583C453.99 128.549 454.346 128.383 454.642 128.087C454.937 127.792 455.085 127.436 455.083 127.021C455.083 126.535 454.927 126.144 454.615 125.848C454.302 125.552 453.903 125.422 453.417 125.458C451.993 125.562 450.483 125.171 448.885 124.285C447.288 123.399 446.281 121.794 445.865 119.469C445.795 119.087 445.613 118.774 445.319 118.531C445.024 118.288 444.685 118.167 444.302 118.167C443.816 118.167 443.417 118.349 443.104 118.715C442.792 119.08 442.687 119.505 442.792 119.99C443.382 123.149 444.771 125.406 446.958 126.76C449.146 128.115 451.351 128.722 453.573 128.583ZM453 134.833C448.243 134.833 444.276 133.201 441.098 129.937C437.92 126.674 436.332 122.611 436.333 117.75C436.333 114.278 437.714 110.501 440.475 106.421C443.236 102.34 447.411 97.9222 453 93.1666C458.59 97.9236 462.766 102.342 465.527 106.423C468.288 110.503 469.668 114.279 469.667 117.75C469.667 122.611 468.078 126.674 464.9 129.937C461.722 133.201 457.756 134.833 453 134.833ZM453 130.667C456.611 130.667 459.597 129.442 461.958 126.994C464.319 124.545 465.5 121.464 465.5 117.75C465.5 115.215 464.449 112.351 462.348 109.156C460.247 105.962 457.131 102.472 453 98.6875C448.868 102.472 445.752 105.962 443.652 109.156C441.552 112.351 440.501 115.215 440.5 117.75C440.5 121.465 441.681 124.547 444.042 126.996C446.403 129.444 449.389 130.668 453 130.667Z" fill="#C2E1FB"/>
<path d="M44.5729 196.583C44.9896 196.549 45.3458 196.383 45.6416 196.087C45.9375 195.792 46.0847 195.436 46.0833 195.021C46.0833 194.535 45.9271 194.144 45.6146 193.848C45.3021 193.552 44.9028 193.422 44.4166 193.458C42.993 193.562 41.4826 193.171 39.8854 192.285C38.2882 191.399 37.2812 189.794 36.8646 187.469C36.7951 187.087 36.6132 186.774 36.3187 186.531C36.0243 186.288 35.6854 186.167 35.3021 186.167C34.816 186.167 34.4166 186.349 34.1041 186.715C33.7916 187.08 33.6875 187.505 33.7916 187.99C34.3819 191.149 35.7708 193.406 37.9583 194.76C40.1458 196.115 42.3507 196.722 44.5729 196.583ZM44 202.833C39.243 202.833 35.2757 201.201 32.0979 197.937C28.9201 194.674 27.3319 190.611 27.3333 185.75C27.3333 182.278 28.7139 178.501 31.475 174.421C34.2361 170.34 38.4111 165.922 44 161.167C49.5903 165.924 53.766 170.342 56.5271 174.423C59.2882 178.503 60.668 182.279 60.6666 185.75C60.6666 190.611 59.0778 194.674 55.9 197.937C52.7222 201.201 48.7555 202.833 44 202.833ZM44 198.667C47.6111 198.667 50.5972 197.442 52.9583 194.994C55.3194 192.545 56.5 189.464 56.5 185.75C56.5 183.215 55.4493 180.351 53.3479 177.156C51.2465 173.962 48.1305 170.472 44 166.687C39.868 170.472 36.7521 173.962 34.6521 177.156C32.5521 180.351 31.5014 183.215 31.5 185.75C31.5 189.465 32.6805 192.547 35.0416 194.996C37.4028 197.444 40.3889 198.668 44 198.667Z" fill="#C2E1FB"/>
<path d="M991 86.0002V90.0375C998.035 91.3598 1004.29 93.4346 1011.03 96.2784V96.2815C1012.28 96.7269 1013.18 97.4638 1013.65 98.3505C1014.14 99.2519 1014.17 100.275 1013.82 101.14C1013.22 102.67 1011.4 103.637 1009.35 103.129C1008.34 105.075 1007.02 106.999 1005.21 108.885C1006.28 109.56 1007.4 110.165 1008.55 110.695H1019.22C1021.19 105.383 1022.44 99.9826 1022.96 94.9783C1012.76 93.492 1003.08 90.4204 993.881 86H991L991 86.0002ZM1021.97 108.363C1021.71 109.152 1021.45 109.937 1021.16 110.716H1023.99V112.542H1008.2V112.52H1008.14L1007.96 112.438C1006.34 111.704 1004.78 110.823 1003.26 109.795L1002.95 109.587C1001.89 110.021 1001.03 110.506 1000.46 110.988C999.772 111.566 999.524 112.069 999.524 112.511C999.524 112.953 999.772 113.459 1000.46 114.037C1001.14 114.614 1002.23 115.199 1003.61 115.691C1006.38 116.675 1010.3 117.308 1014.64 117.308C1018.98 117.308 1022.91 116.675 1025.67 115.691C1027.05 115.199 1028.14 114.614 1028.82 114.037C1029.51 113.459 1029.76 112.953 1029.76 112.511C1029.76 112.069 1029.51 111.566 1028.82 110.988C1028.14 110.41 1027.05 109.826 1025.67 109.334C1024.6 108.952 1023.35 108.623 1021.97 108.363H1021.97ZM999.112 115.282C998.619 123.329 995.193 125.339 992.135 127.498C994.144 127.941 996.401 128.321 998.672 128.237C1001.13 127.275 1003.7 124.693 1005.55 122.624C1004.75 124.555 1003.63 126.435 1002.17 128.325L999.637 132.176C1003.99 131.455 1008.08 130.493 1012.26 127.647C1011.48 125.613 1010.89 123.632 1010.48 121.672C1012.12 124.29 1013.94 126.825 1016.06 129.158C1016.06 129.161 1016.06 129.164 1016.07 129.167L1019.19 132.161C1021.65 129.092 1023.46 125.761 1024.91 122.407C1024.89 123.958 1024.77 125.562 1024.42 127.251C1028.71 128.22 1033.01 127.601 1037.3 127.498C1032.92 125.717 1030.39 122.164 1029.94 115.477C1029.01 116.245 1027.77 116.878 1026.28 117.409C1023.24 118.491 1019.15 119.133 1014.64 119.133C1010.12 119.133 1006.04 118.491 1003 117.409C1001.48 116.867 1000.22 116.22 999.283 115.431C999.224 115.382 999.168 115.332 999.112 115.282L999.112 115.282Z" fill="#D5BA9D"/>
<path d="M22.4391 302.834V306.871C29.4745 308.193 35.7246 310.268 42.4709 313.112V313.115C43.7236 313.56 44.6178 314.297 45.0924 315.184C45.5748 316.085 45.6069 317.109 45.2633 317.973C44.6552 319.503 42.8407 320.471 40.7926 319.963C39.7823 321.909 38.4557 323.832 36.6513 325.718C37.7236 326.394 38.8389 326.998 39.9899 327.528H50.6588C52.633 322.216 53.8792 316.816 54.4033 311.812C44.1965 310.325 34.5186 307.254 25.32 302.833H22.4392L22.4391 302.834ZM53.4054 325.197C53.1518 325.986 52.8842 326.77 52.6027 327.55H55.4288V329.375H39.6388V329.353H39.5809L39.4009 329.271C37.7788 328.537 36.2166 327.657 34.7011 326.628L34.3929 326.421C33.3242 326.854 32.4686 327.34 31.8965 327.821C31.2107 328.399 30.9626 328.902 30.9626 329.344C30.9626 329.786 31.2107 330.292 31.8965 330.87C32.5823 331.448 33.6707 332.032 35.0521 332.524C37.8148 333.508 41.7393 334.141 46.0781 334.141C50.4167 334.141 54.3445 333.508 57.1071 332.524C58.4885 332.032 59.5768 331.448 60.2627 330.87C60.9486 330.293 61.1965 329.786 61.1965 329.344C61.1965 328.902 60.9485 328.399 60.2627 327.821C59.5768 327.244 58.4885 326.659 57.1072 326.167C56.0345 325.785 54.7855 325.457 53.4055 325.197H53.4054ZM30.5509 332.115C30.0583 340.162 26.6322 342.172 23.5743 344.331C25.5831 344.774 27.84 345.155 30.1115 345.07C32.5728 344.108 35.1352 341.526 36.9869 339.458C36.1906 341.389 35.0729 343.269 33.6116 345.158L31.0758 349.01C35.4252 348.288 39.5143 347.326 43.6979 344.481C42.9223 342.446 42.3328 340.465 41.9186 338.506C43.5608 341.124 45.3832 343.658 47.4972 345.991C47.5001 345.995 47.5034 345.997 47.5064 346.001L50.6282 348.994C53.0867 345.925 54.9004 342.594 56.3472 339.241C56.3322 340.791 56.2056 342.395 55.8589 344.084C60.1531 345.053 64.4461 344.434 68.7404 344.331C64.3624 342.55 61.8308 338.997 61.3825 332.31C60.4519 333.078 59.2107 333.711 57.7204 334.242C54.6814 335.325 50.5925 335.966 46.0781 335.966C41.5637 335.966 37.4777 335.324 34.4386 334.242C32.9191 333.701 31.658 333.053 30.7216 332.264C30.663 332.215 30.6069 332.166 30.5507 332.115L30.5509 332.115Z" fill="#D5BA9D"/>
<path d="M45 91.8542L55.4167 101.229V117.5H51.25V105H38.75V117.5H34.5834V101.229L45 91.8542ZM45 86.25L24.1667 105H30.4167V121.667H42.9167V109.167H47.0834V121.667H59.5834V105H65.8334L45 86.25Z" fill="white"/>
<rect x="124" y="241" width="551.5" height="215" fill="white"/>
<rect x="124" y="468" width="551.5" height="215" fill="white"/>
<rect x="687.5" y="241" width="551.5" height="215" fill="white"/>
<rect x="687.5" y="468" width="551.5" height="215" fill="white"/>
<defs>
<clipPath id="clip0_47_2">
<rect width="50" height="50" fill="white" transform="translate(20 221)"/>
</clipPath>
</defs>
</svg>
