<svg width="1280" height="720" viewBox="0 0 1280 720" fill="none" xmlns="http://www.w3.org/2000/svg">
<g clip-path="url(#clip0_35_2)">
<rect width="1280" height="720" fill="white"/>
<rect width="1280" height="72" fill="url(#paint0_linear_35_2)"/>
<rect y="93" width="258.667" height="150" fill="url(#paint1_linear_35_2)"/>
<rect x="270.667" y="93" width="258.667" height="150" fill="url(#paint2_linear_35_2)"/>
<rect x="541.333" y="93" width="258.667" height="150" fill="url(#paint3_linear_35_2)"/>
<rect x="820" y="93" width="460" height="627" fill="#DADDE2"/>
<rect y="264" width="394" height="222" fill="#DADDE2"/>
<rect y="498" width="394" height="222" fill="#DADDE2"/>
<rect x="406" y="264" width="394" height="222" fill="#DADDE2"/>
<rect x="406" y="498" width="394" height="222" fill="#DADDE2"/>
<path d="M31.5324 164.333C22.613 162.367 19.7446 160.333 19.7446 157.167C19.7446 153.533 23.7132 151 30.3536 151C37.3477 151 39.9411 153.833 40.1768 158H48.8605C48.5855 152.267 44.4597 147 36.2475 145.3V138H24.4597V145.2C16.8369 146.6 10.7073 150.8 10.7073 157.233C10.7073 164.933 18.2122 168.767 29.1749 171C38.998 173 40.9627 175.933 40.9627 179.033C40.9627 181.333 39.0373 185 30.3536 185C22.2593 185 19.0766 181.933 18.6444 178H10C10.4715 185.3 16.9155 189.4 24.4597 190.767V198H36.2475V190.833C43.9096 189.6 50 185.833 50 179C50 169.533 40.4519 166.3 31.5324 164.333Z" fill="#00488A"/>
<path d="M318 154.111C315.693 154.111 313.437 154.926 311.518 156.452C309.6 157.978 308.104 160.147 307.221 162.685C306.338 165.223 306.107 168.015 306.558 170.71C307.008 173.404 308.119 175.879 309.75 177.821C311.382 179.763 313.461 181.086 315.724 181.622C317.987 182.158 320.333 181.883 322.465 180.832C324.596 179.78 326.419 178 327.7 175.716C328.982 173.432 329.667 170.747 329.667 168C329.667 164.316 328.438 160.784 326.25 158.179C324.062 155.574 321.094 154.111 318 154.111ZM318 176.333C316.616 176.333 315.262 175.845 314.111 174.929C312.96 174.013 312.063 172.712 311.533 171.189C311.003 169.666 310.864 167.991 311.135 166.374C311.405 164.758 312.071 163.273 313.05 162.107C314.029 160.942 315.276 160.148 316.634 159.827C317.992 159.505 319.4 159.67 320.679 160.301C321.958 160.932 323.051 162 323.82 163.37C324.589 164.741 325 166.352 325 168C325 170.21 324.263 172.33 322.95 173.893C321.637 175.455 319.857 176.333 318 176.333ZM350.667 143H285.333C284.714 143 284.121 143.293 283.683 143.814C283.246 144.335 283 145.041 283 145.778V190.222C283 190.959 283.246 191.665 283.683 192.186C284.121 192.707 284.714 193 285.333 193H350.667C351.286 193 351.879 192.707 352.317 192.186C352.754 191.665 353 190.959 353 190.222V145.778C353 145.041 352.754 144.335 352.317 143.814C351.879 143.293 351.286 143 350.667 143ZM337.148 187.444H298.852C298.069 184.29 296.635 181.42 294.681 179.094C292.728 176.768 290.316 175.061 287.667 174.128V161.872C290.316 160.939 292.728 159.232 294.681 156.906C296.635 154.58 298.069 151.71 298.852 148.556H337.148C337.931 151.71 339.365 154.58 341.319 156.906C343.272 159.232 345.684 160.939 348.333 161.872V174.128C345.684 175.061 343.272 176.768 341.319 179.094C339.365 181.42 337.931 184.29 337.148 187.444ZM348.333 155.976C345.535 154.543 343.304 151.887 342.1 148.556H348.333V155.976ZM293.9 148.556C292.696 151.887 290.465 154.543 287.667 155.976V148.556H293.9ZM287.667 180.024C290.465 181.457 292.696 184.113 293.9 187.444H287.667V180.024ZM342.1 187.444C343.304 184.113 345.535 181.457 348.333 180.024V187.444H342.1Z" fill="#00488A"/>
<path d="M589.525 165.503V143C595.544 143.632 600.626 146.034 604.773 150.206C608.919 154.378 611.328 159.477 612 165.503H589.525ZM584.538 193C578.141 192.368 572.785 189.671 568.47 184.909C564.155 180.147 561.998 174.521 562 168.032C562 161.5 564.157 155.853 568.472 151.091C572.787 146.329 578.142 143.632 584.538 143V193ZM589.525 193V170.497H612C611.411 176.523 609.022 181.633 604.833 185.827C600.645 190.021 595.542 192.412 589.525 193Z" fill="#00488A"/>
</g>
<defs>
<linearGradient id="paint0_linear_35_2" x1="-9.50002" y1="-6.49986" x2="1292" y2="72" gradientUnits="userSpaceOnUse">
<stop stop-color="#DADDE2"/>
<stop offset="1" stop-color="#DADDE2" stop-opacity="0"/>
</linearGradient>
<linearGradient id="paint1_linear_35_2" x1="0" y1="93" x2="259" y2="243" gradientUnits="userSpaceOnUse">
<stop stop-color="#DADDE2"/>
<stop offset="1" stop-color="#DADDE2" stop-opacity="0"/>
</linearGradient>
<linearGradient id="paint2_linear_35_2" x1="271" y1="93" x2="529" y2="243" gradientUnits="userSpaceOnUse">
<stop stop-color="#DADDE2"/>
<stop offset="1" stop-color="#DADDE2" stop-opacity="0"/>
</linearGradient>
<linearGradient id="paint3_linear_35_2" x1="541" y1="93" x2="800" y2="243" gradientUnits="userSpaceOnUse">
<stop stop-color="#DADDE2"/>
<stop offset="1" stop-color="#DADDE2" stop-opacity="0"/>
</linearGradient>
<clipPath id="clip0_35_2">
<rect width="1280" height="720" fill="white"/>
</clipPath>
</defs>
</svg>
